<svg id="Capa_1" data-name="Capa 1" xmlns="http://www.w3.org/2000/svg" viewBox="0 0 335 57"><defs><style>.cls-1{fill:#37485c;}.cls-2,.cls-3{fill:#002f54;}.cls-3,.cls-5,.cls-8{fill-rule:evenodd;}.cls-4{fill:#00a3ca;}.cls-5{fill:#cfd2d4;}.cls-6,.cls-8{fill:#fff;}.cls-7{fill:#a3d33e;}.cls-9{fill:none;stroke:#37485c;stroke-miterlimit:10;stroke-width:0.25px;}</style></defs><title>biblio_ruben</title><rect class="cls-1" x="188.09" y="8.62" width="0.25" height="43"/><path class="cls-2" d="M264.93,43.81a.11.11,0,0,1,.11-.11h2.63c1.49,0,2.23.77,2.23,1.95a1.6,1.6,0,0,1-1,1.62v0A1.71,1.71,0,0,1,270,49c0,1.38-.87,2.11-2.42,2.11H265a.1.1,0,0,1-.11-.11Zm2.72,3.1a1.17,1.17,0,1,0,0-2.32H266c-.05,0-.07,0-.07.06v2.19s0,.07.07.07ZM266,50.23h1.73c.88,0,1.36-.48,1.36-1.22a1.19,1.19,0,0,0-1.36-1.22H266c-.05,0-.07,0-.07.06v2.31C265.9,50.21,265.92,50.23,266,50.23Z"/><path class="cls-2" d="M271.79,43.81a.1.1,0,0,1,.1-.11h.76a.11.11,0,0,1,.11.11V51a.1.1,0,0,1-.11.11h-.76a.1.1,0,0,1-.1-.11Z"/><path class="cls-2" d="M274.86,43.81a.1.1,0,0,1,.11-.11h2.62c1.49,0,2.24.77,2.24,1.95a1.61,1.61,0,0,1-1,1.62v0A1.7,1.7,0,0,1,280,49c0,1.38-.88,2.11-2.42,2.11H275a.1.1,0,0,1-.11-.11Zm2.71,3.1a1.17,1.17,0,1,0,0-2.32h-1.68a.05.05,0,0,0-.06.06v2.19s0,.07.06.07Zm-1.68,3.32h1.73c.89,0,1.37-.48,1.37-1.22s-.48-1.22-1.37-1.22h-1.73a.05.05,0,0,0-.06.06v2.31C275.83,50.21,275.85,50.23,275.89,50.23Z"/><path class="cls-2" d="M281.71,43.81a.1.1,0,0,1,.11-.11h.75a.1.1,0,0,1,.11.11v6.33s0,.07.07.07h3.53a.1.1,0,0,1,.1.11V51a.1.1,0,0,1-.1.11h-4.46a.1.1,0,0,1-.11-.11Z"/><path class="cls-2" d="M287.84,43.81a.11.11,0,0,1,.11-.11h.76a.1.1,0,0,1,.1.11V51a.1.1,0,0,1-.1.11H288a.1.1,0,0,1-.11-.11Z"/><path class="cls-2" d="M290.85,49.5a6.43,6.43,0,0,1-.19-2.09,6.43,6.43,0,0,1,.19-2.09,2.7,2.7,0,0,1,5,0,6.43,6.43,0,0,1,.19,2.09,6.43,6.43,0,0,1-.19,2.09,2.71,2.71,0,0,1-5,0Zm4.1-.27a6.27,6.27,0,0,0,.16-1.82,6.27,6.27,0,0,0-.16-1.82,1.68,1.68,0,0,0-3.15,0,6.27,6.27,0,0,0-.16,1.82,6.27,6.27,0,0,0,.16,1.82,1.68,1.68,0,0,0,3.15,0Z"/><path class="cls-2" d="M299.57,51.11a.1.1,0,0,1-.11-.11V44.67s0-.06-.07-.06h-2a.1.1,0,0,1-.11-.11v-.69a.1.1,0,0,1,.11-.11h5.15a.11.11,0,0,1,.11.11v.69a.11.11,0,0,1-.11.11h-2a.05.05,0,0,0-.06.06V51a.1.1,0,0,1-.11.11Z"/><path class="cls-2" d="M304.06,43.81a.1.1,0,0,1,.1-.11h4.46a.1.1,0,0,1,.11.11v.69a.1.1,0,0,1-.11.11h-3.53a.05.05,0,0,0-.06.06v2.18s0,.07.06.07h3a.1.1,0,0,1,.11.11v.68a.1.1,0,0,1-.11.11h-3s-.06,0-.06.07v2.25s0,.07.06.07h3.53a.1.1,0,0,1,.11.11V51a.1.1,0,0,1-.11.11h-4.46a.1.1,0,0,1-.1-.11Z"/><path class="cls-2" d="M310.2,47.41a6,6,0,0,1,.2-2.08,2.38,2.38,0,0,1,2.46-1.75,2.47,2.47,0,0,1,2.37,1.5.1.1,0,0,1,0,.14l-.65.31a.11.11,0,0,1-.16-.05,1.61,1.61,0,0,0-1.52-1,1.49,1.49,0,0,0-1.54,1.09,6,6,0,0,0-.14,1.83,6.06,6.06,0,0,0,.14,1.83,1.49,1.49,0,0,0,1.54,1.09,1.62,1.62,0,0,0,1.52-1,.12.12,0,0,1,.16-.06l.65.32a.1.1,0,0,1,0,.14,2.46,2.46,0,0,1-2.37,1.49,2.38,2.38,0,0,1-2.46-1.74A6,6,0,0,1,310.2,47.41Z"/><path class="cls-2" d="M318.82,43.81c0-.06.05-.11.13-.11h.71a.15.15,0,0,1,.14.11L322.34,51c0,.07,0,.11-.08.11h-.76a.12.12,0,0,1-.14-.11l-.57-1.61h-3L317.23,51a.14.14,0,0,1-.14.11h-.77c-.06,0-.1,0-.07-.11Zm1.65,4.69-1.16-3.37h0l-1.18,3.37Z"/><polygon class="cls-3" points="276.84 30.37 284.16 13.74 291.25 30.37 291.86 30.37 296.21 30.37 297.3 30.37 286.91 6.82 281.38 6.82 271.07 30.37 271.99 30.37 276.35 30.37 276.84 30.37"/><path class="cls-2" d="M244.11,19.06c0-8.53,4.65-12.25,12.54-12.25,4.33,0,7.09,1.16,9.33,3.44l-3.62,3.62a7.59,7.59,0,0,0-5.74-2.25c-5.07,0-7.22,2.57-7.22,7.51,0,4.77,1.8,7.5,7.25,7.5a7.76,7.76,0,0,0,6-2.41l3.46,3.4c-1.89,2-4.42,3.69-9.81,3.69-8.88,0-12.22-4.39-12.22-12.25"/><path class="cls-2" d="M216.2,21.5V6.81h5.26v14c0,3.52.86,5.54,5.67,5.54s5.71-1.89,5.71-5.54v-14h5.1V21.5c0,4.55-.87,9.52-10.87,9.52s-10.87-5-10.87-9.52"/><rect class="cls-4" x="216.1" y="34.27" width="106.9" height="5.21" rx="0.37" ry="0.37"/><path class="cls-5" d="M166,10.85,11.84,10.9V49.38L166,49.33ZM167,50.45H10.78V9.79H167Z"/><rect class="cls-6" x="11.85" y="10.86" width="154.08" height="38.52"/><rect class="cls-7" x="14" y="13" width="31.02" height="34.25"/><path class="cls-8" d="M37.61,27,16.88,45.09h1.25L38.18,27.6l3,3.37-1,.91,1.55,1.8-1.26,1.15.51.55,1.92-1.67a.09.09,0,0,0,0-.13L41.5,31.9l.93-.86h0l-4-4.6-.08-.09-.69.6ZM21,45.09H19.62L38,29l.11-.09.6.64Zm5.49,0H25.2L39.51,32.58l.06,0,1,1.06-.57.55-.42-.4Zm-2.71,0h-1.3L37.93,31.51l.49-.42.58.64Zm12.91,0H35.41l-3.22-2.76-.69-.6.66-.58Zm2.9,0H38.31l-4.44-3.8-.94-.81.65-.57Zm-10-18.71,3.65,3.18-.87.77L17.13,17l-.27-1-.19-.84Zm.59,3.49L31.53,31l-.85.75L18.27,20.9l-.28-1-.18-.77ZM28.54,31.4l1.28,1.13-.88.77-9.77-8.67-.27-1-.19-.79Zm-1.41,1.76,1,.86-.86.75-7-6.24-.28-1-.19-.8Zm-1.37,1.75.65.58-.8.71-4.5-4.11-.26-.94-.17-.73Zm6.88,10.18-2.05-1.76-.46-.39.66-.59,3.14,2.73ZM40.55,17.6,41,15.78l-11,9.61.11.09.75.61Zm-.91,3.5-7.27,6.36-.71-.57-.1-.08L40,19.43ZM39,24.3l-5.13,4.58-.7-.57-.1-.08,6.32-5.6Z"/><rect class="cls-2" x="47.16" y="13.11" width="116.63" height="34.24"/><path class="cls-6" d="M56,19.75a2.26,2.26,0,0,1-4.51,0V16.2h1v3.51a1.26,1.26,0,1,0,2.52,0V16.2h1Z"/><path class="cls-6" d="M62.66,16.2H64l2.6,4.2h0V16.2h1v5.61H66.33l-2.66-4.33h0v4.33h-1Z"/><path class="cls-6" d="M74.34,16.2h1v5.61h-1Z"/><path class="cls-6" d="M81.42,16.2h1.11l1.55,4.32h0l1.56-4.32h1.07L84.5,21.81h-.87Z"/><path class="cls-6" d="M92.83,16.2h3.71v.87H93.83V18.5H96.4v.84H93.83v1.58h2.85v.89H92.83Z"/><path class="cls-6" d="M103.15,16.2h1.95c1.05,0,2.07.42,2.07,1.61a1.48,1.48,0,0,1-1.28,1.51l1.49,2.49h-1.2l-1.3-2.38h-.73v2.38h-1ZM105,18.62c.56,0,1.2-.14,1.2-.82s-.6-.76-1.12-.76h-.9v1.58Z"/><path class="cls-6" d="M116.49,17.38a1.39,1.39,0,0,0-1-.49c-.46,0-1,.22-1,.77s.43.67,1.07.86,1.64.54,1.64,1.64A1.82,1.82,0,0,1,115.13,22a2.56,2.56,0,0,1-1.92-.8l.71-.66a1.6,1.6,0,0,0,1.23.61c.47,0,1-.23,1-.83s-.58-.75-1.29-1-1.41-.55-1.41-1.59,1-1.65,2.05-1.65a2.47,2.47,0,0,1,1.63.6Z"/><path class="cls-6" d="M123.65,16.2h1v5.61h-1Z"/><path class="cls-6" d="M131.38,16.2h2c1.47,0,3.1.7,3.1,2.81a2.84,2.84,0,0,1-3.1,2.8h-2Zm1.83,4.74c1,0,2.18-.42,2.18-1.93s-1.16-2-2.18-2h-.84v3.88Z"/><path class="cls-6" d="M144.42,16.2h.86l2.41,5.61h-1.14L146,20.53H143.6l-.51,1.28H142Zm1.26,3.47-.86-2.28-.88,2.28Z"/><path class="cls-6" d="M153.79,16.2h2c1.46,0,3.09.7,3.09,2.81a2.84,2.84,0,0,1-3.09,2.8h-2Zm1.83,4.74c1,0,2.18-.42,2.18-1.93s-1.15-2-2.18-2h-.83v3.88Z"/><path class="cls-6" d="M52.85,43.6h0l1-2.79h.35L53,44h-.34l-1.23-3.21h.36Z"/><path class="cls-6" d="M56.58,44h-.36l1.39-3.21h.32L59.31,44H59l-.36-.84H56.93Zm.47-1.14h1.42l-.71-1.71Z"/><path class="cls-6" d="M64.22,43.55h0V40.81h.32V44h-.4l-1.87-2.76h0V44h-.33V40.81h.41Z"/><path class="cls-6" d="M70,41.39a1.23,1.23,0,0,0-.93-.37,1.4,1.4,0,0,0,0,2.79,1.65,1.65,0,0,0,.86-.2v-1h-.75v-.29h1.08v1.45a2.32,2.32,0,0,1-1.2.32,1.69,1.69,0,0,1,0-3.38,1.57,1.57,0,0,1,1.16.43Z"/><path class="cls-6" d="M73.17,42.83v-2h.32v2c0,.52.22,1,.88,1s.87-.5.87-1v-2h.33v2a1.2,1.2,0,1,1-2.4,0Z"/><path class="cls-6" d="M78.39,44H78l1.39-3.21h.32L81.12,44h-.37l-.35-.84H78.74Zm.47-1.14h1.42l-.71-1.71Z"/><path class="cls-6" d="M84.07,44h-.32V40.81h.94c.64,0,1.1.23,1.1.86a.83.83,0,0,1-.82.82L85.91,44h-.4l-.89-1.5h-.55Zm0-1.78h.57c.52,0,.82-.19.82-.57s-.32-.58-.81-.58h-.58Z"/><path class="cls-6" d="M88.62,40.81h1.06a1.61,1.61,0,1,1,0,3.21H88.62Zm.32,2.92h.65a1.32,1.32,0,1,0,0-2.63h-.65Z"/><path class="cls-6" d="M94.52,44h-.33V40.81h.33Z"/><path class="cls-6" d="M97.5,44h-.36l1.39-3.21h.32L100.23,44h-.36l-.36-.84H97.85ZM98,42.88h1.42l-.71-1.71Z"/><path class="cls-6" d="M107.17,44h-.33V42.64l-1.2-1.83h.41l1,1.56,1-1.56h.38l-1.2,1.83Z"/><path class="cls-6" d="M114.49,43.73h1.72V44h-2V40.81h2v.29h-1.67v1.11h1.56v.28h-1.56Z"/><path class="cls-6" d="M120.14,42.11l.88-1.3h.39l-1.07,1.53L121.52,44h-.41l-1-1.44-1,1.44h-.41l1.18-1.68-1.07-1.53h.4Z"/><path class="cls-6" d="M126.73,43.51a1.43,1.43,0,0,1-1.21.6,1.69,1.69,0,0,1,0-3.38,1.4,1.4,0,0,1,1.15.51l-.27.2a1.06,1.06,0,0,0-.87-.42,1.4,1.4,0,0,0,0,2.8,1.09,1.09,0,0,0,.94-.48Z"/><path class="cls-6" d="M129.73,43.73h1.72V44h-2V40.81h2v.29h-1.67v1.11h1.56v.28h-1.56Z"/><path class="cls-6" d="M134.5,43.73H136V44h-1.82V40.81h.32Z"/><path class="cls-6" d="M139,43.73h1.72V44h-2.05V40.81h2v.29H139v1.11h1.55v.28H139Z"/><path class="cls-6" d="M145.69,43.55h0V40.81H146V44h-.41l-1.87-2.76h0V44h-.33V40.81h.41Z"/><path class="cls-6" d="M151.73,43.51a1.43,1.43,0,0,1-1.21.6,1.69,1.69,0,0,1,0-3.38,1.4,1.4,0,0,1,1.15.51l-.27.2a1.06,1.06,0,0,0-.87-.42,1.4,1.4,0,0,0,0,2.8,1.09,1.09,0,0,0,.94-.48Z"/><path class="cls-6" d="M154.73,44h-.33V40.81h.33Z"/><path class="cls-6" d="M157.72,44h-.36l1.39-3.21h.31L160.44,44h-.36l-.35-.84h-1.67Zm.47-1.14h1.41l-.71-1.71Z"/><polygon class="cls-8" points="73.66 35.55 76.54 29.01 79.33 35.55 79.57 35.55 81.28 35.55 81.71 35.55 77.62 26.28 75.44 26.28 71.38 35.55 71.74 35.55 73.46 35.55 73.66 35.55"/><path class="cls-8" d="M148.37,27.52A4.87,4.87,0,0,0,146,26.23l-.1,0h0l-.26,0a5.52,5.52,0,0,0-.72-.06,4.83,4.83,0,1,0,0,9.66l.48,0,.12,0,.31,0,.23,0,.19-.05.3-.09.1,0a3.68,3.68,0,0,0,.35-.15h0a4.92,4.92,0,0,0,2.83-3.92h0a3.71,3.71,0,0,0,0-.47,4.91,4.91,0,0,0-.08-.86h0A4.75,4.75,0,0,0,148.37,27.52ZM147.2,32.3a3,3,0,0,1-.39.49,2.8,2.8,0,0,1-.65.45h0a3.54,3.54,0,0,1-.57.22h-.05a1,1,0,0,1-.24.05l-.33,0h-.07a2.7,2.7,0,0,1-1.89-.76,2.58,2.58,0,0,1,0-3.71,2.71,2.71,0,0,1,1.9-.77,2.15,2.15,0,0,1,.43,0l.23,0,.16,0a2.66,2.66,0,0,1,1.83,2.49,2.48,2.48,0,0,1-.39,1.35Z"/><path class="cls-8" d="M94.61,26.29s0,9.22,0,9.25h2.2V32h4.76v3.52h2.2V26.29h-2.2v3.58H96.8V26.29Z"/><path class="cls-8" d="M116.85,35.55h2c2.08,0,5.7,0,5.72,0v-2h-5.51V32h4.16v-2h-4.16V28.31h5.45V26.37h-7.65v9.18Z"/><polygon class="cls-8" points="111.26 35.54 111.26 28.45 114.43 28.45 114.43 26.3 106.02 26.29 106.02 28.45 109.06 28.45 109.06 35.54 111.26 35.54"/><polygon class="cls-8" points="124.5 25.59 124.5 24.65 116.82 25.59 124.5 25.59"/><polygon class="cls-8" points="137.74 35.56 137.74 26.29 135.89 26.29 132.46 29.78 129.17 26.29 127.27 26.29 127.27 35.56 129.33 35.56 129.33 29.84 132.46 32.94 135.66 29.73 135.66 35.56 137.74 35.56"/><path class="cls-6" d="M50.37,30.92c0-3.36,1.83-4.83,4.94-4.83A4.7,4.7,0,0,1,59,27.45l-1.43,1.42A3,3,0,0,0,55.29,28c-2,0-2.84,1-2.84,3s.71,3,2.86,3A3.06,3.06,0,0,0,57.68,33L59,34.29a4.78,4.78,0,0,1-3.86,1.45C51.68,35.74,50.37,34,50.37,30.92Z"/><path class="cls-6" d="M152,30.92c0-3.36,1.83-4.83,4.94-4.83a4.7,4.7,0,0,1,3.67,1.36l-1.43,1.42a3,3,0,0,0-2.26-.88c-2,0-2.84,1-2.84,3s.71,3,2.86,3a3.06,3.06,0,0,0,2.37-.95l1.36,1.34a4.78,4.78,0,0,1-3.86,1.45C153.32,35.74,152,34,152,30.92Z"/><path class="cls-6" d="M61.35,32.05V26.27h2.07v5.52c0,1.39.34,2.18,2.23,2.18s2.25-.74,2.25-2.18V26.27h2v5.78c0,1.8-.34,3.75-4.27,3.75S61.35,33.85,61.35,32.05Z"/><path class="cls-6" d="M82.93,32.05V26.27H85v5.52c0,1.39.34,2.18,2.23,2.18s2.25-.74,2.25-2.18V26.27h2v5.78c0,1.8-.34,3.75-4.28,3.75S82.93,33.85,82.93,32.05Z"/><rect class="cls-9" width="335" height="57"/></svg>