<svg id="Capa_1" data-name="Capa 1" xmlns="http://www.w3.org/2000/svg" viewBox="0 0 105 105"><defs><style>.cls-1{fill:none;stroke:#007df3;stroke-miterlimit:10;stroke-width:3px;}.cls-2{fill:#007df3;}</style></defs><title>biblio_ruben</title><circle class="cls-1" cx="51.05" cy="51.32" r="45.3"/><path class="cls-2" d="M68.63,40.11a2.46,2.46,0,0,0-2.51-2.52H36a2.46,2.46,0,0,0-2.51,2.52v2.53H68.63ZM61.1,32.55H41a2.46,2.46,0,0,0-2.51,2.52H63.61A2.46,2.46,0,0,0,61.1,32.55ZM73.65,42.64l-1.48-1.5v4H29.94v-4l-1.49,1.5c-1.48,1.49-2.55,1.89-1.95,5S30,68.05,30.41,70.39a3.11,3.11,0,0,0,3.07,2.52H68.63a3.11,3.11,0,0,0,3.07-2.52c.43-2.34,3.31-19.57,3.91-22.71S75.14,44.13,73.65,42.64ZM61.1,56.26a2.47,2.47,0,0,1-2.51,2.52H43.52A2.47,2.47,0,0,1,41,56.26v-5h3.52v4h13v-4H61.1Z"/></svg>