<svg id="Capa_1" data-name="Capa 1" xmlns="http://www.w3.org/2000/svg" viewBox="0 0 105 105"><defs><style>.cls-1{fill:none;stroke:#007df3;stroke-miterlimit:10;stroke-width:3px;}.cls-2{fill:#007df3;}</style></defs><title>biblio_ruben</title><circle class="cls-1" cx="53.66" cy="51.32" r="45.3"/><path class="cls-2" d="M70.43,40.47l-22.7-11.7c-3.11-1.64-9.24,1.53-11,4.31A4.32,4.32,0,0,0,36,35.74l.28,26.42a2.78,2.78,0,0,0,1.33,1.69c1.26.77,20.33,12.68,20.88,13a1.83,1.83,0,0,0,1,.26,1.88,1.88,0,0,0,.84-.19,1.62,1.62,0,0,0,.93-1.43V47.76a1.6,1.6,0,0,0-.89-1.4L39.71,34.84a7.2,7.2,0,0,1,2.84-2.3A4.36,4.36,0,0,1,46,32.08L66.37,43c.6.31.62.36.62.9V70.23c0,1.32,1.33,1.86,2.31,1.86a2.14,2.14,0,0,0,2-1.86V41.87A1.61,1.61,0,0,0,70.43,40.47Z"/></svg>