<svg id="Capa_1" data-name="Capa 1" xmlns="http://www.w3.org/2000/svg" viewBox="0 0 105 105"><defs><style>.cls-1{fill:none;stroke:#007df3;stroke-miterlimit:10;stroke-width:3px;}.cls-2{fill:#007df3;}</style></defs><title>biblio_ruben</title><circle class="cls-1" cx="53" cy="52.3" r="45.3"/><path class="cls-2" d="M41.69,63A15.69,15.69,0,0,1,42,41.23a15.39,15.39,0,0,1,8.61-4.38l-.17-5.24a20.45,20.45,0,0,0-12.1,5.93A20.93,20.93,0,0,0,38,66.63l-4.39,4.42,13.9.76,0-14.72ZM58.45,32.78l0,14.72,5.82-5.86A15.71,15.71,0,0,1,64,63.37a15.39,15.39,0,0,1-8.61,4.38L55.55,73a20.39,20.39,0,0,0,12.1-5.93A20.93,20.93,0,0,0,68,38l4.39-4.42Z"/></svg>