<svg id="Capa_1" data-name="Capa 1" xmlns="http://www.w3.org/2000/svg" viewBox="0 0 105 105"><defs><style>.cls-1{fill:none;stroke:#007df3;stroke-miterlimit:10;stroke-width:3px;}</style></defs><title>biblio_ruben</title><circle class="cls-1" cx="49.81" cy="51.32" r="45.3"/><path class="cls-1" d="M66.7,26H32.92a5.64,5.64,0,0,0-5.62,5.63V71a5.64,5.64,0,0,0,5.62,5.63H66.7A5.64,5.64,0,0,0,72.33,71V31.62A5.64,5.64,0,0,0,66.7,26Zm0,45H32.92V31.62H66.7ZM52.63,57H38.55v2.81H52.63Zm8.44-11.26H49.81v2.82H61.07ZM49.81,42.88H61.07V37.25H49.81ZM47,37.25H38.55V48.51H47ZM44.18,51.32H38.55v2.81h5.63ZM47,54.13H61.07V51.32H47Zm14.07,8.45H38.55v2.81H61.07Zm-5.63-2.82h5.63V57H55.44Z"/></svg>