<svg id="Capa_1" data-name="Capa 1" xmlns="http://www.w3.org/2000/svg" viewBox="0 0 105 105"><defs><style>.cls-1{fill:none;stroke:#007df3;stroke-miterlimit:10;stroke-width:3px;}.cls-2{fill:#007df3;}</style></defs><title>biblio_ruben</title><circle class="cls-1" cx="52.92" cy="52.3" r="45.3"/><path class="cls-2" d="M36.82,44.45c2.36-1.83,4.31-.57,6.92,2.45.29.34.68-.06.91-.26l3.83-3.43a.49.49,0,0,0,.1-.73c-.27-.31-1.25-1.58-1.87-2.4-4.57-6,12.47-10,9.85-10.08-1.33,0-6.67-.09-7.47,0-3.24.35-7.3,3.37-9.34,4.78a26.3,26.3,0,0,0-3.85,3c-.75.66-.12,2.19-1.49,3.39s-2.35.31-3.19,1c-.42.37-1.58,1.24-1.92,1.53A.83.83,0,0,0,29.25,45s3.19,3.52,3.45,3.83a1.11,1.11,0,0,0,1.44.18c.44-.39,1.59-1.39,1.78-1.57S35.8,45.25,36.82,44.45Zm14.4,1.3a.65.65,0,0,0-1-.07L46.6,48.84a.74.74,0,0,0-.07,1L67.46,73.66a1.33,1.33,0,0,0,1.89.13l2.45-2.05a1.36,1.36,0,0,0,.13-1.91Zm27.9-10.13c-.18-1.25-.83-1-1.16-.46s-1.82,2.78-2.43,3.8-2.1,3-4.88,1-1.89-3.48-1.39-4.44,2.07-3.67,2.29-4a.68.68,0,0,0-.93-.92c-.9.42-6.37,2.59-7.13,5.7s.65,6-2.14,8.82L58,48.68l3.4,4,4.18-4a5.9,5.9,0,0,1,5-1.53c4.12.93,6.36-.62,7.72-3.17C79.51,41.68,79.31,36.87,79.12,35.62ZM35.83,70.08a1.36,1.36,0,0,0,0,1.92l2.4,2.34a1.33,1.33,0,0,0,1.88-.22L52.49,62l-3.8-4.32Z"/></svg>